<?xml version="1.0" encoding="UTF-8"?>
<svg xmlns="http://www.w3.org/2000/svg" width="1024" height="1024" viewBox="0 0 1024 1024">

      <defs>
        <radialGradient id="bgBreath" cx="34%" cy="22%" r="72%">
          <stop offset="0%" stop-color="#FFFFFF"/>
          <stop offset="62%" stop-color="#F8F4EC"/>
          <stop offset="100%" stop-color="#EFE8DC"/>
        </radialGradient>
        <linearGradient id="commaFill" x1="284" y1="182" x2="748" y2="826">
          <stop offset="0%" stop-color="#465F59"/>
          <stop offset="100%" stop-color="#273836"/>
        </linearGradient>
        <filter id="softShadow" x="-20%" y="-20%" width="140%" height="140%">
          <feDropShadow dx="0" dy="28" stdDeviation="28" flood-color="#7C6D5F" flood-opacity=".22"/>
        </filter>
      </defs>
      <rect width="1024" height="1024" rx="226" fill="url(#bgBreath)"/>
      <path filter="url(#softShadow)" fill="url(#commaFill)" d="M548 204c128 9 224 108 226 237 3 174-139 331-315 350-106 12-197-33-223-115-24-76 15-152 88-176 58-19 122 5 151 55 25 44 17 99-19 133 75-30 127-111 123-203-5-111-85-190-190-190-35 0-69 8-101 24 48-78 136-122 260-115Z"/>
      <circle cx="682" cy="314" r="26" fill="#D9896F"/>
    
</svg>
