<svg xmlns="http://www.w3.org/2000/svg" width="1024" height="1024" viewBox="0 0 1024 1024">
  <defs>
    <linearGradient id="bg" x1="0" y1="0" x2="1" y2="1">
      <stop offset="0" stop-color="#050B19"/>
      <stop offset="0.54" stop-color="#0A1E3E"/>
      <stop offset="1" stop-color="#12345E"/>
    </linearGradient>
    <filter id="glow" x="-30%" y="-30%" width="160%" height="160%">
      <feGaussianBlur stdDeviation="12" result="blur"/>
      <feMerge>
        <feMergeNode in="blur"/>
        <feMergeNode in="SourceGraphic"/>
      </feMerge>
    </filter>
  </defs>
  <rect width="1024" height="1024" fill="url(#bg)"/>
  <path d="M301 647 C405 553, 562 549, 681 647" fill="none" stroke="#F8E6B8" stroke-width="62" stroke-linecap="round"/>
  <circle cx="746" cy="647" r="34" fill="#E1BD72"/>
  <path d="M382 730 H625" fill="none" stroke="#E1BD72" stroke-width="25" stroke-linecap="round" opacity="0.84"/>
  <path d="M446 350 C490 308, 558 302, 604 342 C649 381, 647 449, 601 488 C555 531, 486 531, 440 490 C394 451, 396 391, 446 350Z" fill="#FFF3D5" filter="url(#glow)"/>
  <path d="M542 444 C522 504, 480 562, 415 605" fill="none" stroke="#FFF3D5" stroke-width="58" stroke-linecap="round"/>
</svg>
