<?xml version="1.0" encoding="UTF-8"?>
<svg xmlns="http://www.w3.org/2000/svg" width="1542" height="1412" viewBox="0 0 1542 1412">
  <rect width="1542" height="1412" fill="#F4F7F6"/>
  <text x="70" y="78" font-family="Avenir Next, Helvetica Neue, Arial, sans-serif" font-size="48" font-weight="800" fill="#202A28">Head in the Clouds · Logo v7 Color</text>
  <text x="70" y="120" font-family="Avenir Next, Helvetica Neue, Arial, sans-serif" font-size="20" fill="#64716F">Same v6-02 mark, color system only. Testing air, cloud, dawn, silver, quiet blue, and old warm baseline.</text>
  <text x="70" y="150" font-family="Avenir Next, Helvetica Neue, Arial, sans-serif" font-size="16" fill="#87918F">Background should carry altitude/air; accent dot should carry the human thought.</text>
  
        <g transform="translate(70 182)">
          <rect width="430" height="532" rx="34" fill="#FFFFFF" stroke="#E1E7E6"/>
          <svg x="56" y="42" width="236" height="236" viewBox="0 0 1024 1024">

      <defs>
        <linearGradient id="bg" x1="0" y1="0" x2="1" y2="1">
          <stop offset="0%" stop-color="#FBFDFD"/>
          <stop offset="58%" stop-color="#F4F8F7"/>
          <stop offset="100%" stop-color="#EAF2F1"/>
        </linearGradient>
      </defs>
      <rect width="1024" height="1024" rx="226" fill="url(#bg)"/>
    
<path d="M350 380H620" fill="none" stroke="#202A28" stroke-width="72" stroke-linecap="round"/>
<path d="M318 566C426 512 548 524 668 596" fill="none" stroke="#202A28" stroke-width="82" stroke-linecap="round"/>
<circle cx="676" cy="596" r="38" fill="#D96F5F"/>
<path d="M440 698H588" fill="none" stroke="#B5C8C5" stroke-width="46" stroke-linecap="round"/>
</svg>
          <svg x="312" y="90" width="76" height="76" viewBox="0 0 1024 1024">

      <defs>
        <linearGradient id="bg" x1="0" y1="0" x2="1" y2="1">
          <stop offset="0%" stop-color="#FBFDFD"/>
          <stop offset="58%" stop-color="#F4F8F7"/>
          <stop offset="100%" stop-color="#EAF2F1"/>
        </linearGradient>
      </defs>
      <rect width="1024" height="1024" rx="226" fill="url(#bg)"/>
    
<path d="M350 380H620" fill="none" stroke="#202A28" stroke-width="72" stroke-linecap="round"/>
<path d="M318 566C426 512 548 524 668 596" fill="none" stroke="#202A28" stroke-width="82" stroke-linecap="round"/>
<circle cx="676" cy="596" r="38" fill="#D96F5F"/>
<path d="M440 698H588" fill="none" stroke="#B5C8C5" stroke-width="46" stroke-linecap="round"/>
</svg>
          <svg x="338" y="206" width="28" height="28" viewBox="0 0 1024 1024">

      <defs>
        <linearGradient id="bg" x1="0" y1="0" x2="1" y2="1">
          <stop offset="0%" stop-color="#FBFDFD"/>
          <stop offset="58%" stop-color="#F4F8F7"/>
          <stop offset="100%" stop-color="#EAF2F1"/>
        </linearGradient>
      </defs>
      <rect width="1024" height="1024" rx="226" fill="url(#bg)"/>
    
<path d="M350 380H620" fill="none" stroke="#202A28" stroke-width="72" stroke-linecap="round"/>
<path d="M318 566C426 512 548 524 668 596" fill="none" stroke="#202A28" stroke-width="82" stroke-linecap="round"/>
<circle cx="676" cy="596" r="38" fill="#D96F5F"/>
<path d="M440 698H588" fill="none" stroke="#B5C8C5" stroke-width="46" stroke-linecap="round"/>
</svg>
          <text x="56" y="342" font-family="Avenir Next, Helvetica Neue, Arial, sans-serif" font-size="26" font-weight="750" fill="#252B2A">01 High Altitude Mist</text>
          <text x="56" y="383" font-family="Avenir Next, Helvetica Neue, Arial, sans-serif" font-size="16" fill="#68716E">Cool off-white. Air first, emotion second.</text>
          <text x="56" y="438" font-family="Avenir Next, Helvetica Neue, Arial, sans-serif" font-size="14" letter-spacing="2" fill="#7D8C8A">COLOR / 108 / 28 PX CHECK</text>
          <text x="56" y="478" font-family="Avenir Next, Helvetica Neue, Arial, sans-serif" font-size="18" fill="#52615F">bg · #202A28 · #B5C8C5 · #D96F5F</text>
        </g>
      

        <g transform="translate(556 182)">
          <rect width="430" height="532" rx="34" fill="#FFFFFF" stroke="#E1E7E6"/>
          <svg x="56" y="42" width="236" height="236" viewBox="0 0 1024 1024">

      <rect width="1024" height="1024" rx="226" fill="#FBFCFA"/>
    
<path d="M350 380H620" fill="none" stroke="#1F2927" stroke-width="72" stroke-linecap="round"/>
<path d="M318 566C426 512 548 524 668 596" fill="none" stroke="#1F2927" stroke-width="82" stroke-linecap="round"/>
<circle cx="676" cy="596" r="38" fill="#D86D5F"/>
<path d="M440 698H588" fill="none" stroke="#C5D2D0" stroke-width="46" stroke-linecap="round"/>
</svg>
          <svg x="312" y="90" width="76" height="76" viewBox="0 0 1024 1024">

      <rect width="1024" height="1024" rx="226" fill="#FBFCFA"/>
    
<path d="M350 380H620" fill="none" stroke="#1F2927" stroke-width="72" stroke-linecap="round"/>
<path d="M318 566C426 512 548 524 668 596" fill="none" stroke="#1F2927" stroke-width="82" stroke-linecap="round"/>
<circle cx="676" cy="596" r="38" fill="#D86D5F"/>
<path d="M440 698H588" fill="none" stroke="#C5D2D0" stroke-width="46" stroke-linecap="round"/>
</svg>
          <svg x="338" y="206" width="28" height="28" viewBox="0 0 1024 1024">

      <rect width="1024" height="1024" rx="226" fill="#FBFCFA"/>
    
<path d="M350 380H620" fill="none" stroke="#1F2927" stroke-width="72" stroke-linecap="round"/>
<path d="M318 566C426 512 548 524 668 596" fill="none" stroke="#1F2927" stroke-width="82" stroke-linecap="round"/>
<circle cx="676" cy="596" r="38" fill="#D86D5F"/>
<path d="M440 698H588" fill="none" stroke="#C5D2D0" stroke-width="46" stroke-linecap="round"/>
</svg>
          <text x="56" y="342" font-family="Avenir Next, Helvetica Neue, Arial, sans-serif" font-size="26" font-weight="750" fill="#252B2A">02 Cloud White</text>
          <text x="56" y="383" font-family="Avenir Next, Helvetica Neue, Arial, sans-serif" font-size="16" fill="#68716E">Almost white, relying on symbol shape not color mood.</text>
          <text x="56" y="438" font-family="Avenir Next, Helvetica Neue, Arial, sans-serif" font-size="14" letter-spacing="2" fill="#7D8C8A">COLOR / 108 / 28 PX CHECK</text>
          <text x="56" y="478" font-family="Avenir Next, Helvetica Neue, Arial, sans-serif" font-size="18" fill="#52615F">bg · #1F2927 · #C5D2D0 · #D86D5F</text>
        </g>
      

        <g transform="translate(1042 182)">
          <rect width="430" height="532" rx="34" fill="#FFFFFF" stroke="#E1E7E6"/>
          <svg x="56" y="42" width="236" height="236" viewBox="0 0 1024 1024">

      <defs>
        <linearGradient id="bg" x1="0" y1="0" x2="0" y2="1">
          <stop offset="0%" stop-color="#FFF9F3"/>
          <stop offset="42%" stop-color="#F7FAF9"/>
          <stop offset="100%" stop-color="#EDF4F2"/>
        </linearGradient>
      </defs>
      <rect width="1024" height="1024" rx="226" fill="url(#bg)"/>
    
<path d="M350 380H620" fill="none" stroke="#202A28" stroke-width="72" stroke-linecap="round"/>
<path d="M318 566C426 512 548 524 668 596" fill="none" stroke="#202A28" stroke-width="82" stroke-linecap="round"/>
<circle cx="676" cy="596" r="38" fill="#D97462"/>
<path d="M440 698H588" fill="none" stroke="#B2C6C2" stroke-width="46" stroke-linecap="round"/>
</svg>
          <svg x="312" y="90" width="76" height="76" viewBox="0 0 1024 1024">

      <defs>
        <linearGradient id="bg" x1="0" y1="0" x2="0" y2="1">
          <stop offset="0%" stop-color="#FFF9F3"/>
          <stop offset="42%" stop-color="#F7FAF9"/>
          <stop offset="100%" stop-color="#EDF4F2"/>
        </linearGradient>
      </defs>
      <rect width="1024" height="1024" rx="226" fill="url(#bg)"/>
    
<path d="M350 380H620" fill="none" stroke="#202A28" stroke-width="72" stroke-linecap="round"/>
<path d="M318 566C426 512 548 524 668 596" fill="none" stroke="#202A28" stroke-width="82" stroke-linecap="round"/>
<circle cx="676" cy="596" r="38" fill="#D97462"/>
<path d="M440 698H588" fill="none" stroke="#B2C6C2" stroke-width="46" stroke-linecap="round"/>
</svg>
          <svg x="338" y="206" width="28" height="28" viewBox="0 0 1024 1024">

      <defs>
        <linearGradient id="bg" x1="0" y1="0" x2="0" y2="1">
          <stop offset="0%" stop-color="#FFF9F3"/>
          <stop offset="42%" stop-color="#F7FAF9"/>
          <stop offset="100%" stop-color="#EDF4F2"/>
        </linearGradient>
      </defs>
      <rect width="1024" height="1024" rx="226" fill="url(#bg)"/>
    
<path d="M350 380H620" fill="none" stroke="#202A28" stroke-width="72" stroke-linecap="round"/>
<path d="M318 566C426 512 548 524 668 596" fill="none" stroke="#202A28" stroke-width="82" stroke-linecap="round"/>
<circle cx="676" cy="596" r="38" fill="#D97462"/>
<path d="M440 698H588" fill="none" stroke="#B2C6C2" stroke-width="46" stroke-linecap="round"/>
</svg>
          <text x="56" y="342" font-family="Avenir Next, Helvetica Neue, Arial, sans-serif" font-size="26" font-weight="750" fill="#252B2A">03 Cabin Dawn</text>
          <text x="56" y="383" font-family="Avenir Next, Helvetica Neue, Arial, sans-serif" font-size="16" fill="#68716E">A subtle warm top light without returning to beige stationery.</text>
          <text x="56" y="438" font-family="Avenir Next, Helvetica Neue, Arial, sans-serif" font-size="14" letter-spacing="2" fill="#7D8C8A">COLOR / 108 / 28 PX CHECK</text>
          <text x="56" y="478" font-family="Avenir Next, Helvetica Neue, Arial, sans-serif" font-size="18" fill="#52615F">bg · #202A28 · #B2C6C2 · #D97462</text>
        </g>
      

        <g transform="translate(70 770)">
          <rect width="430" height="532" rx="34" fill="#FFFFFF" stroke="#E1E7E6"/>
          <svg x="56" y="42" width="236" height="236" viewBox="0 0 1024 1024">

      <defs>
        <linearGradient id="bg" x1="0" y1="0" x2="1" y2="1">
          <stop offset="0%" stop-color="#F8FAFA"/>
          <stop offset="100%" stop-color="#E8ECEC"/>
        </linearGradient>
      </defs>
      <rect width="1024" height="1024" rx="226" fill="url(#bg)"/>
    
<path d="M350 380H620" fill="none" stroke="#1F2827" stroke-width="72" stroke-linecap="round"/>
<path d="M318 566C426 512 548 524 668 596" fill="none" stroke="#1F2827" stroke-width="82" stroke-linecap="round"/>
<circle cx="676" cy="596" r="38" fill="#D66B5C"/>
<path d="M440 698H588" fill="none" stroke="#AEBDBA" stroke-width="46" stroke-linecap="round"/>
</svg>
          <svg x="312" y="90" width="76" height="76" viewBox="0 0 1024 1024">

      <defs>
        <linearGradient id="bg" x1="0" y1="0" x2="1" y2="1">
          <stop offset="0%" stop-color="#F8FAFA"/>
          <stop offset="100%" stop-color="#E8ECEC"/>
        </linearGradient>
      </defs>
      <rect width="1024" height="1024" rx="226" fill="url(#bg)"/>
    
<path d="M350 380H620" fill="none" stroke="#1F2827" stroke-width="72" stroke-linecap="round"/>
<path d="M318 566C426 512 548 524 668 596" fill="none" stroke="#1F2827" stroke-width="82" stroke-linecap="round"/>
<circle cx="676" cy="596" r="38" fill="#D66B5C"/>
<path d="M440 698H588" fill="none" stroke="#AEBDBA" stroke-width="46" stroke-linecap="round"/>
</svg>
          <svg x="338" y="206" width="28" height="28" viewBox="0 0 1024 1024">

      <defs>
        <linearGradient id="bg" x1="0" y1="0" x2="1" y2="1">
          <stop offset="0%" stop-color="#F8FAFA"/>
          <stop offset="100%" stop-color="#E8ECEC"/>
        </linearGradient>
      </defs>
      <rect width="1024" height="1024" rx="226" fill="url(#bg)"/>
    
<path d="M350 380H620" fill="none" stroke="#1F2827" stroke-width="72" stroke-linecap="round"/>
<path d="M318 566C426 512 548 524 668 596" fill="none" stroke="#1F2827" stroke-width="82" stroke-linecap="round"/>
<circle cx="676" cy="596" r="38" fill="#D66B5C"/>
<path d="M440 698H588" fill="none" stroke="#AEBDBA" stroke-width="46" stroke-linecap="round"/>
</svg>
          <text x="56" y="342" font-family="Avenir Next, Helvetica Neue, Arial, sans-serif" font-size="26" font-weight="750" fill="#252B2A">04 Sky Silver</text>
          <text x="56" y="383" font-family="Avenir Next, Helvetica Neue, Arial, sans-serif" font-size="16" fill="#68716E">More premium and less stationery-like.</text>
          <text x="56" y="438" font-family="Avenir Next, Helvetica Neue, Arial, sans-serif" font-size="14" letter-spacing="2" fill="#7D8C8A">COLOR / 108 / 28 PX CHECK</text>
          <text x="56" y="478" font-family="Avenir Next, Helvetica Neue, Arial, sans-serif" font-size="18" fill="#52615F">bg · #1F2827 · #AEBDBA · #D66B5C</text>
        </g>
      

        <g transform="translate(556 770)">
          <rect width="430" height="532" rx="34" fill="#FFFFFF" stroke="#E1E7E6"/>
          <svg x="56" y="42" width="236" height="236" viewBox="0 0 1024 1024">

      <defs>
        <linearGradient id="bg" x1="0" y1="0" x2="1" y2="1">
          <stop offset="0%" stop-color="#F8FBFF"/>
          <stop offset="100%" stop-color="#E8F0F7"/>
        </linearGradient>
      </defs>
      <rect width="1024" height="1024" rx="226" fill="url(#bg)"/>
    
<path d="M350 380H620" fill="none" stroke="#1F2A2D" stroke-width="72" stroke-linecap="round"/>
<path d="M318 566C426 512 548 524 668 596" fill="none" stroke="#1F2A2D" stroke-width="82" stroke-linecap="round"/>
<circle cx="676" cy="596" r="38" fill="#D96F5F"/>
<path d="M440 698H588" fill="none" stroke="#B6C7CE" stroke-width="46" stroke-linecap="round"/>
</svg>
          <svg x="312" y="90" width="76" height="76" viewBox="0 0 1024 1024">

      <defs>
        <linearGradient id="bg" x1="0" y1="0" x2="1" y2="1">
          <stop offset="0%" stop-color="#F8FBFF"/>
          <stop offset="100%" stop-color="#E8F0F7"/>
        </linearGradient>
      </defs>
      <rect width="1024" height="1024" rx="226" fill="url(#bg)"/>
    
<path d="M350 380H620" fill="none" stroke="#1F2A2D" stroke-width="72" stroke-linecap="round"/>
<path d="M318 566C426 512 548 524 668 596" fill="none" stroke="#1F2A2D" stroke-width="82" stroke-linecap="round"/>
<circle cx="676" cy="596" r="38" fill="#D96F5F"/>
<path d="M440 698H588" fill="none" stroke="#B6C7CE" stroke-width="46" stroke-linecap="round"/>
</svg>
          <svg x="338" y="206" width="28" height="28" viewBox="0 0 1024 1024">

      <defs>
        <linearGradient id="bg" x1="0" y1="0" x2="1" y2="1">
          <stop offset="0%" stop-color="#F8FBFF"/>
          <stop offset="100%" stop-color="#E8F0F7"/>
        </linearGradient>
      </defs>
      <rect width="1024" height="1024" rx="226" fill="url(#bg)"/>
    
<path d="M350 380H620" fill="none" stroke="#1F2A2D" stroke-width="72" stroke-linecap="round"/>
<path d="M318 566C426 512 548 524 668 596" fill="none" stroke="#1F2A2D" stroke-width="82" stroke-linecap="round"/>
<circle cx="676" cy="596" r="38" fill="#D96F5F"/>
<path d="M440 698H588" fill="none" stroke="#B6C7CE" stroke-width="46" stroke-linecap="round"/>
</svg>
          <text x="56" y="342" font-family="Avenir Next, Helvetica Neue, Arial, sans-serif" font-size="26" font-weight="750" fill="#252B2A">05 Quiet Blue</text>
          <text x="56" y="383" font-family="Avenir Next, Helvetica Neue, Arial, sans-serif" font-size="16" fill="#68716E">Cooler app-store presence, but not dark aviation blue.</text>
          <text x="56" y="438" font-family="Avenir Next, Helvetica Neue, Arial, sans-serif" font-size="14" letter-spacing="2" fill="#7D8C8A">COLOR / 108 / 28 PX CHECK</text>
          <text x="56" y="478" font-family="Avenir Next, Helvetica Neue, Arial, sans-serif" font-size="18" fill="#52615F">bg · #1F2A2D · #B6C7CE · #D96F5F</text>
        </g>
      

        <g transform="translate(1042 770)">
          <rect width="430" height="532" rx="34" fill="#FFFFFF" stroke="#E1E7E6"/>
          <svg x="56" y="42" width="236" height="236" viewBox="0 0 1024 1024">

      <rect width="1024" height="1024" rx="226" fill="#F8F3EA"/>
    
<path d="M350 380H620" fill="none" stroke="#25302D" stroke-width="72" stroke-linecap="round"/>
<path d="M318 566C426 512 548 524 668 596" fill="none" stroke="#25302D" stroke-width="82" stroke-linecap="round"/>
<circle cx="676" cy="596" r="38" fill="#D87561"/>
<path d="M440 698H588" fill="none" stroke="#A4B6B1" stroke-width="46" stroke-linecap="round"/>
</svg>
          <svg x="312" y="90" width="76" height="76" viewBox="0 0 1024 1024">

      <rect width="1024" height="1024" rx="226" fill="#F8F3EA"/>
    
<path d="M350 380H620" fill="none" stroke="#25302D" stroke-width="72" stroke-linecap="round"/>
<path d="M318 566C426 512 548 524 668 596" fill="none" stroke="#25302D" stroke-width="82" stroke-linecap="round"/>
<circle cx="676" cy="596" r="38" fill="#D87561"/>
<path d="M440 698H588" fill="none" stroke="#A4B6B1" stroke-width="46" stroke-linecap="round"/>
</svg>
          <svg x="338" y="206" width="28" height="28" viewBox="0 0 1024 1024">

      <rect width="1024" height="1024" rx="226" fill="#F8F3EA"/>
    
<path d="M350 380H620" fill="none" stroke="#25302D" stroke-width="72" stroke-linecap="round"/>
<path d="M318 566C426 512 548 524 668 596" fill="none" stroke="#25302D" stroke-width="82" stroke-linecap="round"/>
<circle cx="676" cy="596" r="38" fill="#D87561"/>
<path d="M440 698H588" fill="none" stroke="#A4B6B1" stroke-width="46" stroke-linecap="round"/>
</svg>
          <text x="56" y="342" font-family="Avenir Next, Helvetica Neue, Arial, sans-serif" font-size="26" font-weight="750" fill="#252B2A">06 Warm Control</text>
          <text x="56" y="383" font-family="Avenir Next, Helvetica Neue, Arial, sans-serif" font-size="16" fill="#68716E">The old warm direction, kept only as a comparison baseline.</text>
          <text x="56" y="438" font-family="Avenir Next, Helvetica Neue, Arial, sans-serif" font-size="14" letter-spacing="2" fill="#7D8C8A">COLOR / 108 / 28 PX CHECK</text>
          <text x="56" y="478" font-family="Avenir Next, Helvetica Neue, Arial, sans-serif" font-size="18" fill="#52615F">bg · #25302D · #A4B6B1 · #D87561</text>
        </g>
      
</svg>
