<?xml version="1.0" encoding="UTF-8"?>
<svg xmlns="http://www.w3.org/2000/svg" width="1542" height="1412" viewBox="0 0 1542 1412">
  <rect width="1542" height="1412" fill="#F6F1EA"/>
  <text x="70" y="78" font-family="Avenir Next, Helvetica Neue, Arial, sans-serif" font-size="48" font-weight="800" fill="#252B2A">Head in the Clouds · Logo v6</text>
  <text x="70" y="120" font-family="Avenir Next, Helvetica Neue, Arial, sans-serif" font-size="20" fill="#6F7773">Senior refinement pass: less literal, better small-size silhouette, more brand-owned Yun/Xin glyph logic.</text>
  <text x="70" y="150" font-family="Avenir Next, Helvetica Neue, Arial, sans-serif" font-size="16" fill="#8A8277">Decision axis: choose between character-owned recognition and quieter abstract premium feel.</text>
  
        <g transform="translate(70 182)">
          <rect width="430" height="532" rx="34" fill="#FFFFFF" stroke="#E4DCD2"/>
          <svg x="56" y="42" width="236" height="236" viewBox="0 0 1024 1024">
      <rect width="1024" height="1024" rx="226" fill="#F8F3EA"/>
      <path d="M344 346H628" fill="none" stroke="#25302D" stroke-width="62" stroke-linecap="round"/>
      <path d="M286 540C406 480 548 496 684 584" fill="none" stroke="#25302D" stroke-width="72" stroke-linecap="round"/>
      <path d="M426 672H614" fill="none" stroke="#A4B6B1" stroke-width="42" stroke-linecap="round"/>
      <circle cx="704" cy="584" r="32" fill="#D87561"/>
    </svg>
          <svg x="312" y="90" width="76" height="76" viewBox="0 0 1024 1024">
      <rect width="1024" height="1024" rx="226" fill="#F8F3EA"/>
      <path d="M344 346H628" fill="none" stroke="#25302D" stroke-width="62" stroke-linecap="round"/>
      <path d="M286 540C406 480 548 496 684 584" fill="none" stroke="#25302D" stroke-width="72" stroke-linecap="round"/>
      <path d="M426 672H614" fill="none" stroke="#A4B6B1" stroke-width="42" stroke-linecap="round"/>
      <circle cx="704" cy="584" r="32" fill="#D87561"/>
    </svg>
          <svg x="338" y="206" width="28" height="28" viewBox="0 0 1024 1024">
      <rect width="1024" height="1024" rx="226" fill="#F8F3EA"/>
      <path d="M344 346H628" fill="none" stroke="#25302D" stroke-width="62" stroke-linecap="round"/>
      <path d="M286 540C406 480 548 496 684 584" fill="none" stroke="#25302D" stroke-width="72" stroke-linecap="round"/>
      <path d="M426 672H614" fill="none" stroke="#A4B6B1" stroke-width="42" stroke-linecap="round"/>
      <circle cx="704" cy="584" r="32" fill="#D87561"/>
    </svg>
          <text x="56" y="342" font-family="Avenir Next, Helvetica Neue, Arial, sans-serif" font-size="26" font-weight="750" fill="#252B2A">01 Yun Breath Refined</text>
          <text x="56" y="383" font-family="Avenir Next, Helvetica Neue, Arial, sans-serif" font-size="16" fill="#68716E">The v5 Yun direction with better balance and less literal character logic.</text>
          <text x="56" y="438" font-family="Avenir Next, Helvetica Neue, Arial, sans-serif" font-size="14" letter-spacing="2" fill="#B98370">REFINED / 108 / 28 PX CHECK</text>
          <text x="56" y="478" font-family="Avenir Next, Helvetica Neue, Arial, sans-serif" font-size="22" letter-spacing="7" fill="#25302D">云上心事</text>
        </g>
      

        <g transform="translate(556 182)">
          <rect width="430" height="532" rx="34" fill="#FFFFFF" stroke="#E4DCD2"/>
          <svg x="56" y="42" width="236" height="236" viewBox="0 0 1024 1024">
      <rect width="1024" height="1024" rx="226" fill="#F8F3EA"/>
      <path d="M350 380H620" fill="none" stroke="#25302D" stroke-width="72" stroke-linecap="round"/>
      <path d="M318 566C426 512 548 524 668 596" fill="none" stroke="#25302D" stroke-width="82" stroke-linecap="round"/>
      <circle cx="676" cy="596" r="38" fill="#D87561"/>
      <path d="M440 698H588" fill="none" stroke="#A4B6B1" stroke-width="46" stroke-linecap="round"/>
    </svg>
          <svg x="312" y="90" width="76" height="76" viewBox="0 0 1024 1024">
      <rect width="1024" height="1024" rx="226" fill="#F8F3EA"/>
      <path d="M350 380H620" fill="none" stroke="#25302D" stroke-width="72" stroke-linecap="round"/>
      <path d="M318 566C426 512 548 524 668 596" fill="none" stroke="#25302D" stroke-width="82" stroke-linecap="round"/>
      <circle cx="676" cy="596" r="38" fill="#D87561"/>
      <path d="M440 698H588" fill="none" stroke="#A4B6B1" stroke-width="46" stroke-linecap="round"/>
    </svg>
          <svg x="338" y="206" width="28" height="28" viewBox="0 0 1024 1024">
      <rect width="1024" height="1024" rx="226" fill="#F8F3EA"/>
      <path d="M350 380H620" fill="none" stroke="#25302D" stroke-width="72" stroke-linecap="round"/>
      <path d="M318 566C426 512 548 524 668 596" fill="none" stroke="#25302D" stroke-width="82" stroke-linecap="round"/>
      <circle cx="676" cy="596" r="38" fill="#D87561"/>
      <path d="M440 698H588" fill="none" stroke="#A4B6B1" stroke-width="46" stroke-linecap="round"/>
    </svg>
          <text x="56" y="342" font-family="Avenir Next, Helvetica Neue, Arial, sans-serif" font-size="26" font-weight="750" fill="#252B2A">02 Yun Breath Compact</text>
          <text x="56" y="383" font-family="Avenir Next, Helvetica Neue, Arial, sans-serif" font-size="16" fill="#68716E">A more launcher-ready Yun mark with stronger 28px readability.</text>
          <text x="56" y="438" font-family="Avenir Next, Helvetica Neue, Arial, sans-serif" font-size="14" letter-spacing="2" fill="#B98370">REFINED / 108 / 28 PX CHECK</text>
          <text x="56" y="478" font-family="Avenir Next, Helvetica Neue, Arial, sans-serif" font-size="22" letter-spacing="7" fill="#25302D">云上心事</text>
        </g>
      

        <g transform="translate(1042 182)">
          <rect width="430" height="532" rx="34" fill="#FFFFFF" stroke="#E4DCD2"/>
          <svg x="56" y="42" width="236" height="236" viewBox="0 0 1024 1024">
      <rect width="1024" height="1024" rx="226" fill="#F7F2EA"/>
      <path d="M330 344H626" fill="none" stroke="#25302D" stroke-width="62" stroke-linecap="round"/>
      <path d="M300 506H666" fill="none" stroke="#25302D" stroke-width="68" stroke-linecap="round"/>
      <path d="M344 654C440 724 560 710 682 602" fill="none" stroke="#A4B6B1" stroke-width="62" stroke-linecap="round"/>
      <circle cx="684" cy="506" r="34" fill="#D87561"/>
    </svg>
          <svg x="312" y="90" width="76" height="76" viewBox="0 0 1024 1024">
      <rect width="1024" height="1024" rx="226" fill="#F7F2EA"/>
      <path d="M330 344H626" fill="none" stroke="#25302D" stroke-width="62" stroke-linecap="round"/>
      <path d="M300 506H666" fill="none" stroke="#25302D" stroke-width="68" stroke-linecap="round"/>
      <path d="M344 654C440 724 560 710 682 602" fill="none" stroke="#A4B6B1" stroke-width="62" stroke-linecap="round"/>
      <circle cx="684" cy="506" r="34" fill="#D87561"/>
    </svg>
          <svg x="338" y="206" width="28" height="28" viewBox="0 0 1024 1024">
      <rect width="1024" height="1024" rx="226" fill="#F7F2EA"/>
      <path d="M330 344H626" fill="none" stroke="#25302D" stroke-width="62" stroke-linecap="round"/>
      <path d="M300 506H666" fill="none" stroke="#25302D" stroke-width="68" stroke-linecap="round"/>
      <path d="M344 654C440 724 560 710 682 602" fill="none" stroke="#A4B6B1" stroke-width="62" stroke-linecap="round"/>
      <circle cx="684" cy="506" r="34" fill="#D87561"/>
    </svg>
          <text x="56" y="342" font-family="Avenir Next, Helvetica Neue, Arial, sans-serif" font-size="26" font-weight="750" fill="#252B2A">03 Yun Xin Refined</text>
          <text x="56" y="383" font-family="Avenir Next, Helvetica Neue, Arial, sans-serif" font-size="16" fill="#68716E">Yun and Xin fused, but not a smiley face.</text>
          <text x="56" y="438" font-family="Avenir Next, Helvetica Neue, Arial, sans-serif" font-size="14" letter-spacing="2" fill="#B98370">REFINED / 108 / 28 PX CHECK</text>
          <text x="56" y="478" font-family="Avenir Next, Helvetica Neue, Arial, sans-serif" font-size="22" letter-spacing="7" fill="#25302D">云上心事</text>
        </g>
      

        <g transform="translate(70 770)">
          <rect width="430" height="532" rx="34" fill="#FFFFFF" stroke="#E4DCD2"/>
          <svg x="56" y="42" width="236" height="236" viewBox="0 0 1024 1024">
      <rect width="1024" height="1024" rx="226" fill="#F9F5EE"/>
      <path d="M348 358H604" fill="none" stroke="#25302D" stroke-width="60" stroke-linecap="round"/>
      <path d="M286 522H704" fill="none" stroke="#25302D" stroke-width="70" stroke-linecap="round"/>
      <path d="M402 660C486 706 588 688 660 616" fill="none" stroke="#A4B6B1" stroke-width="58" stroke-linecap="round"/>
      <circle cx="708" cy="522" r="30" fill="#D87561"/>
    </svg>
          <svg x="312" y="90" width="76" height="76" viewBox="0 0 1024 1024">
      <rect width="1024" height="1024" rx="226" fill="#F9F5EE"/>
      <path d="M348 358H604" fill="none" stroke="#25302D" stroke-width="60" stroke-linecap="round"/>
      <path d="M286 522H704" fill="none" stroke="#25302D" stroke-width="70" stroke-linecap="round"/>
      <path d="M402 660C486 706 588 688 660 616" fill="none" stroke="#A4B6B1" stroke-width="58" stroke-linecap="round"/>
      <circle cx="708" cy="522" r="30" fill="#D87561"/>
    </svg>
          <svg x="338" y="206" width="28" height="28" viewBox="0 0 1024 1024">
      <rect width="1024" height="1024" rx="226" fill="#F9F5EE"/>
      <path d="M348 358H604" fill="none" stroke="#25302D" stroke-width="60" stroke-linecap="round"/>
      <path d="M286 522H704" fill="none" stroke="#25302D" stroke-width="70" stroke-linecap="round"/>
      <path d="M402 660C486 706 588 688 660 616" fill="none" stroke="#A4B6B1" stroke-width="58" stroke-linecap="round"/>
      <circle cx="708" cy="522" r="30" fill="#D87561"/>
    </svg>
          <text x="56" y="342" font-family="Avenir Next, Helvetica Neue, Arial, sans-serif" font-size="26" font-weight="750" fill="#252B2A">04 Yun Xin Quiet</text>
          <text x="56" y="383" font-family="Avenir Next, Helvetica Neue, Arial, sans-serif" font-size="16" fill="#68716E">A calmer, more premium mark for App Store and WeChat surfaces.</text>
          <text x="56" y="438" font-family="Avenir Next, Helvetica Neue, Arial, sans-serif" font-size="14" letter-spacing="2" fill="#B98370">REFINED / 108 / 28 PX CHECK</text>
          <text x="56" y="478" font-family="Avenir Next, Helvetica Neue, Arial, sans-serif" font-size="22" letter-spacing="7" fill="#25302D">云上心事</text>
        </g>
      

        <g transform="translate(556 770)">
          <rect width="430" height="532" rx="34" fill="#FFFFFF" stroke="#E4DCD2"/>
          <svg x="56" y="42" width="236" height="236" viewBox="0 0 1024 1024">
      <rect width="1024" height="1024" rx="226" fill="#F8F4EC"/>
      <path d="M282 490C408 416 568 434 734 546" fill="none" stroke="#25302D" stroke-width="76" stroke-linecap="round"/>
      <path d="M340 620C446 568 562 580 686 656" fill="none" stroke="#A4B6B1" stroke-width="54" stroke-linecap="round"/>
      <circle cx="714" cy="536" r="34" fill="#D87561"/>
    </svg>
          <svg x="312" y="90" width="76" height="76" viewBox="0 0 1024 1024">
      <rect width="1024" height="1024" rx="226" fill="#F8F4EC"/>
      <path d="M282 490C408 416 568 434 734 546" fill="none" stroke="#25302D" stroke-width="76" stroke-linecap="round"/>
      <path d="M340 620C446 568 562 580 686 656" fill="none" stroke="#A4B6B1" stroke-width="54" stroke-linecap="round"/>
      <circle cx="714" cy="536" r="34" fill="#D87561"/>
    </svg>
          <svg x="338" y="206" width="28" height="28" viewBox="0 0 1024 1024">
      <rect width="1024" height="1024" rx="226" fill="#F8F4EC"/>
      <path d="M282 490C408 416 568 434 734 546" fill="none" stroke="#25302D" stroke-width="76" stroke-linecap="round"/>
      <path d="M340 620C446 568 562 580 686 656" fill="none" stroke="#A4B6B1" stroke-width="54" stroke-linecap="round"/>
      <circle cx="714" cy="536" r="34" fill="#D87561"/>
    </svg>
          <text x="56" y="342" font-family="Avenir Next, Helvetica Neue, Arial, sans-serif" font-size="26" font-weight="750" fill="#252B2A">05 Thought Stroke</text>
          <text x="56" y="383" font-family="Avenir Next, Helvetica Neue, Arial, sans-serif" font-size="16" fill="#68716E">A less character-like option: one held thought, one soft afterimage.</text>
          <text x="56" y="438" font-family="Avenir Next, Helvetica Neue, Arial, sans-serif" font-size="14" letter-spacing="2" fill="#B98370">REFINED / 108 / 28 PX CHECK</text>
          <text x="56" y="478" font-family="Avenir Next, Helvetica Neue, Arial, sans-serif" font-size="22" letter-spacing="7" fill="#25302D">云上心事</text>
        </g>
      

        <g transform="translate(1042 770)">
          <rect width="430" height="532" rx="34" fill="#FFFFFF" stroke="#E4DCD2"/>
          <svg x="56" y="42" width="236" height="236" viewBox="0 0 1024 1024">
      <rect width="1024" height="1024" rx="226" fill="#F8F3EA"/>
      <path d="M304 398H552" fill="none" stroke="#25302D" stroke-width="62" stroke-linecap="round"/>
      <path d="M632 398H704" fill="none" stroke="#25302D" stroke-width="62" stroke-linecap="round" opacity=".34"/>
      <circle cx="586" cy="398" r="32" fill="#D87561"/>
      <path d="M294 562H710" fill="none" stroke="#25302D" stroke-width="70" stroke-linecap="round"/>
      <path d="M396 690C476 730 576 714 648 650" fill="none" stroke="#A4B6B1" stroke-width="56" stroke-linecap="round"/>
    </svg>
          <svg x="312" y="90" width="76" height="76" viewBox="0 0 1024 1024">
      <rect width="1024" height="1024" rx="226" fill="#F8F3EA"/>
      <path d="M304 398H552" fill="none" stroke="#25302D" stroke-width="62" stroke-linecap="round"/>
      <path d="M632 398H704" fill="none" stroke="#25302D" stroke-width="62" stroke-linecap="round" opacity=".34"/>
      <circle cx="586" cy="398" r="32" fill="#D87561"/>
      <path d="M294 562H710" fill="none" stroke="#25302D" stroke-width="70" stroke-linecap="round"/>
      <path d="M396 690C476 730 576 714 648 650" fill="none" stroke="#A4B6B1" stroke-width="56" stroke-linecap="round"/>
    </svg>
          <svg x="338" y="206" width="28" height="28" viewBox="0 0 1024 1024">
      <rect width="1024" height="1024" rx="226" fill="#F8F3EA"/>
      <path d="M304 398H552" fill="none" stroke="#25302D" stroke-width="62" stroke-linecap="round"/>
      <path d="M632 398H704" fill="none" stroke="#25302D" stroke-width="62" stroke-linecap="round" opacity=".34"/>
      <circle cx="586" cy="398" r="32" fill="#D87561"/>
      <path d="M294 562H710" fill="none" stroke="#25302D" stroke-width="70" stroke-linecap="round"/>
      <path d="M396 690C476 730 576 714 648 650" fill="none" stroke="#A4B6B1" stroke-width="56" stroke-linecap="round"/>
    </svg>
          <text x="56" y="342" font-family="Avenir Next, Helvetica Neue, Arial, sans-serif" font-size="26" font-weight="750" fill="#252B2A">06 Wordmark Seed</text>
          <text x="56" y="383" font-family="Avenir Next, Helvetica Neue, Arial, sans-serif" font-size="16" fill="#68716E">The icon extracted from a future custom Chinese wordmark.</text>
          <text x="56" y="438" font-family="Avenir Next, Helvetica Neue, Arial, sans-serif" font-size="14" letter-spacing="2" fill="#B98370">REFINED / 108 / 28 PX CHECK</text>
          <text x="56" y="478" font-family="Avenir Next, Helvetica Neue, Arial, sans-serif" font-size="22" letter-spacing="7" fill="#25302D">云上心事</text>
        </g>
      
</svg>
