<?xml version="1.0" encoding="UTF-8"?>
<svg xmlns="http://www.w3.org/2000/svg" width="1542" height="1326" viewBox="0 0 1542 1326">
  <rect width="1542" height="1326" fill="#F6F1EA"/>
  <text x="70" y="78" font-family="Avenir Next, Helvetica Neue, Arial, sans-serif" font-size="48" font-weight="800" fill="#252B2A">Head in the Clouds · Logo v3</text>
  <text x="70" y="120" font-family="Avenir Next, Helvetica Neue, Arial, sans-serif" font-size="20" fill="#6F7773">Flat, warm, contemporary. No blue-gold, no aircraft, no literal cloud, no postcard.</text>
  
        <g transform="translate(70 160)">
          <rect width="430" height="500" rx="34" fill="#FFFFFF" stroke="#E4DCD2"/>
          <svg x="56" y="42" width="236" height="236" viewBox="0 0 1024 1024">
      <rect width="1024" height="1024" rx="226" fill="#FBF7EF"/>
      <path d="M332 350H612" fill="none" stroke="#26302E" stroke-width="72" stroke-linecap="round"/>
      <path d="M286 548C402 482 540 478 664 530C710 550 746 548 778 512" fill="none" stroke="#26302E" stroke-width="84" stroke-linecap="round" stroke-linejoin="round"/>
      <circle cx="706" cy="405" r="34" fill="#D9715E"/>
    </svg>
          <svg x="312" y="90" width="76" height="76" viewBox="0 0 1024 1024">
      <rect width="1024" height="1024" rx="226" fill="#FBF7EF"/>
      <path d="M332 350H612" fill="none" stroke="#26302E" stroke-width="72" stroke-linecap="round"/>
      <path d="M286 548C402 482 540 478 664 530C710 550 746 548 778 512" fill="none" stroke="#26302E" stroke-width="84" stroke-linecap="round" stroke-linejoin="round"/>
      <circle cx="706" cy="405" r="34" fill="#D9715E"/>
    </svg>
          <svg x="338" y="206" width="28" height="28" viewBox="0 0 1024 1024">
      <rect width="1024" height="1024" rx="226" fill="#FBF7EF"/>
      <path d="M332 350H612" fill="none" stroke="#26302E" stroke-width="72" stroke-linecap="round"/>
      <path d="M286 548C402 482 540 478 664 530C710 550 746 548 778 512" fill="none" stroke="#26302E" stroke-width="84" stroke-linecap="round" stroke-linejoin="round"/>
      <circle cx="706" cy="405" r="34" fill="#D9715E"/>
    </svg>
          <text x="56" y="340" font-family="Avenir Next, Helvetica Neue, Arial, sans-serif" font-size="28" font-weight="750" fill="#252B2A">01 Yun Stroke</text>
          <text x="56" y="381" font-family="Avenir Next, Helvetica Neue, Arial, sans-serif" font-size="17" fill="#68716E">A modern abstraction of the Chinese character Yun.</text>
          <text x="56" y="438" font-family="Avenir Next, Helvetica Neue, Arial, sans-serif" font-size="14" letter-spacing="2" fill="#B98370">FLAT / 108 / 28 PX CHECK</text>
        </g>
      

        <g transform="translate(556 160)">
          <rect width="430" height="500" rx="34" fill="#FFFFFF" stroke="#E4DCD2"/>
          <svg x="56" y="42" width="236" height="236" viewBox="0 0 1024 1024">
      <rect width="1024" height="1024" rx="226" fill="#F7F3EA"/>
      <path d="M266 438H510" fill="none" stroke="#252C2A" stroke-width="74" stroke-linecap="round"/>
      <path d="M568 438H758" fill="none" stroke="#252C2A" stroke-width="74" stroke-linecap="round" opacity=".26"/>
      <circle cx="530" cy="438" r="38" fill="#D9715E"/>
      <path d="M318 588H700" fill="none" stroke="#879C95" stroke-width="44" stroke-linecap="round" opacity=".76"/>
    </svg>
          <svg x="312" y="90" width="76" height="76" viewBox="0 0 1024 1024">
      <rect width="1024" height="1024" rx="226" fill="#F7F3EA"/>
      <path d="M266 438H510" fill="none" stroke="#252C2A" stroke-width="74" stroke-linecap="round"/>
      <path d="M568 438H758" fill="none" stroke="#252C2A" stroke-width="74" stroke-linecap="round" opacity=".26"/>
      <circle cx="530" cy="438" r="38" fill="#D9715E"/>
      <path d="M318 588H700" fill="none" stroke="#879C95" stroke-width="44" stroke-linecap="round" opacity=".76"/>
    </svg>
          <svg x="338" y="206" width="28" height="28" viewBox="0 0 1024 1024">
      <rect width="1024" height="1024" rx="226" fill="#F7F3EA"/>
      <path d="M266 438H510" fill="none" stroke="#252C2A" stroke-width="74" stroke-linecap="round"/>
      <path d="M568 438H758" fill="none" stroke="#252C2A" stroke-width="74" stroke-linecap="round" opacity=".26"/>
      <circle cx="530" cy="438" r="38" fill="#D9715E"/>
      <path d="M318 588H700" fill="none" stroke="#879C95" stroke-width="44" stroke-linecap="round" opacity=".76"/>
    </svg>
          <text x="56" y="340" font-family="Avenir Next, Helvetica Neue, Arial, sans-serif" font-size="28" font-weight="750" fill="#252B2A">02 Unsaid Line</text>
          <text x="56" y="381" font-family="Avenir Next, Helvetica Neue, Arial, sans-serif" font-size="17" fill="#68716E">One sentence, interrupted before it becomes a post.</text>
          <text x="56" y="438" font-family="Avenir Next, Helvetica Neue, Arial, sans-serif" font-size="14" letter-spacing="2" fill="#B98370">FLAT / 108 / 28 PX CHECK</text>
        </g>
      

        <g transform="translate(1042 160)">
          <rect width="430" height="500" rx="34" fill="#FFFFFF" stroke="#E4DCD2"/>
          <svg x="56" y="42" width="236" height="236" viewBox="0 0 1024 1024">
      <rect width="1024" height="1024" rx="226" fill="#F4EEE5"/>
      <path d="M368 312C438 426 501 493 590 526" fill="none" stroke="#2C3734" stroke-width="82" stroke-linecap="round"/>
      <path d="M702 306C635 430 572 545 514 710" fill="none" stroke="#2C3734" stroke-width="82" stroke-linecap="round"/>
      <circle cx="628" cy="540" r="36" fill="#E0826E"/>
    </svg>
          <svg x="312" y="90" width="76" height="76" viewBox="0 0 1024 1024">
      <rect width="1024" height="1024" rx="226" fill="#F4EEE5"/>
      <path d="M368 312C438 426 501 493 590 526" fill="none" stroke="#2C3734" stroke-width="82" stroke-linecap="round"/>
      <path d="M702 306C635 430 572 545 514 710" fill="none" stroke="#2C3734" stroke-width="82" stroke-linecap="round"/>
      <circle cx="628" cy="540" r="36" fill="#E0826E"/>
    </svg>
          <svg x="338" y="206" width="28" height="28" viewBox="0 0 1024 1024">
      <rect width="1024" height="1024" rx="226" fill="#F4EEE5"/>
      <path d="M368 312C438 426 501 493 590 526" fill="none" stroke="#2C3734" stroke-width="82" stroke-linecap="round"/>
      <path d="M702 306C635 430 572 545 514 710" fill="none" stroke="#2C3734" stroke-width="82" stroke-linecap="round"/>
      <circle cx="628" cy="540" r="36" fill="#E0826E"/>
    </svg>
          <text x="56" y="340" font-family="Avenir Next, Helvetica Neue, Arial, sans-serif" font-size="28" font-weight="750" fill="#252B2A">03 Soft Y</text>
          <text x="56" y="381" font-family="Avenir Next, Helvetica Neue, Arial, sans-serif" font-size="17" fill="#68716E">A quiet monogram that avoids travel cliches.</text>
          <text x="56" y="438" font-family="Avenir Next, Helvetica Neue, Arial, sans-serif" font-size="14" letter-spacing="2" fill="#B98370">FLAT / 108 / 28 PX CHECK</text>
        </g>
      

        <g transform="translate(70 716)">
          <rect width="430" height="500" rx="34" fill="#FFFFFF" stroke="#E4DCD2"/>
          <svg x="56" y="42" width="236" height="236" viewBox="0 0 1024 1024">
      <rect width="1024" height="1024" rx="226" fill="#F8F5EE"/>
      <rect x="324" y="252" width="376" height="520" rx="188" fill="none" stroke="#283330" stroke-width="64"/>
      <path d="M368 582C452 538 556 548 656 608" fill="none" stroke="#9EB2AB" stroke-width="48" stroke-linecap="round"/>
      <circle cx="636" cy="386" r="34" fill="#D9715E"/>
    </svg>
          <svg x="312" y="90" width="76" height="76" viewBox="0 0 1024 1024">
      <rect width="1024" height="1024" rx="226" fill="#F8F5EE"/>
      <rect x="324" y="252" width="376" height="520" rx="188" fill="none" stroke="#283330" stroke-width="64"/>
      <path d="M368 582C452 538 556 548 656 608" fill="none" stroke="#9EB2AB" stroke-width="48" stroke-linecap="round"/>
      <circle cx="636" cy="386" r="34" fill="#D9715E"/>
    </svg>
          <svg x="338" y="206" width="28" height="28" viewBox="0 0 1024 1024">
      <rect width="1024" height="1024" rx="226" fill="#F8F5EE"/>
      <rect x="324" y="252" width="376" height="520" rx="188" fill="none" stroke="#283330" stroke-width="64"/>
      <path d="M368 582C452 538 556 548 656 608" fill="none" stroke="#9EB2AB" stroke-width="48" stroke-linecap="round"/>
      <circle cx="636" cy="386" r="34" fill="#D9715E"/>
    </svg>
          <text x="56" y="340" font-family="Avenir Next, Helvetica Neue, Arial, sans-serif" font-size="28" font-weight="750" fill="#252B2A">04 Quiet Window</text>
          <text x="56" y="381" font-family="Avenir Next, Helvetica Neue, Arial, sans-serif" font-size="17" fill="#68716E">A private space without literal aircraft language.</text>
          <text x="56" y="438" font-family="Avenir Next, Helvetica Neue, Arial, sans-serif" font-size="14" letter-spacing="2" fill="#B98370">FLAT / 108 / 28 PX CHECK</text>
        </g>
      

        <g transform="translate(556 716)">
          <rect width="430" height="500" rx="34" fill="#FFFFFF" stroke="#E4DCD2"/>
          <svg x="56" y="42" width="236" height="236" viewBox="0 0 1024 1024">
      <rect width="1024" height="1024" rx="226" fill="#F6F0E6"/>
      <path d="M260 570L410 456L512 542L652 436L760 510" fill="none" stroke="#283330" stroke-width="78" stroke-linecap="round" stroke-linejoin="round"/>
      <path d="M410 456L512 542L410 588Z" fill="#9AAEA7" opacity=".82"/>
      <circle cx="759" cy="510" r="32" fill="#D9715E"/>
    </svg>
          <svg x="312" y="90" width="76" height="76" viewBox="0 0 1024 1024">
      <rect width="1024" height="1024" rx="226" fill="#F6F0E6"/>
      <path d="M260 570L410 456L512 542L652 436L760 510" fill="none" stroke="#283330" stroke-width="78" stroke-linecap="round" stroke-linejoin="round"/>
      <path d="M410 456L512 542L410 588Z" fill="#9AAEA7" opacity=".82"/>
      <circle cx="759" cy="510" r="32" fill="#D9715E"/>
    </svg>
          <svg x="338" y="206" width="28" height="28" viewBox="0 0 1024 1024">
      <rect width="1024" height="1024" rx="226" fill="#F6F0E6"/>
      <path d="M260 570L410 456L512 542L652 436L760 510" fill="none" stroke="#283330" stroke-width="78" stroke-linecap="round" stroke-linejoin="round"/>
      <path d="M410 456L512 542L410 588Z" fill="#9AAEA7" opacity=".82"/>
      <circle cx="759" cy="510" r="32" fill="#D9715E"/>
    </svg>
          <text x="56" y="340" font-family="Avenir Next, Helvetica Neue, Arial, sans-serif" font-size="28" font-weight="750" fill="#252B2A">05 Fold Mark</text>
          <text x="56" y="381" font-family="Avenir Next, Helvetica Neue, Arial, sans-serif" font-size="17" fill="#68716E">A sentence folded into a compact mark.</text>
          <text x="56" y="438" font-family="Avenir Next, Helvetica Neue, Arial, sans-serif" font-size="14" letter-spacing="2" fill="#B98370">FLAT / 108 / 28 PX CHECK</text>
        </g>
      

        <g transform="translate(1042 716)">
          <rect width="430" height="500" rx="34" fill="#FFFFFF" stroke="#E4DCD2"/>
          <svg x="56" y="42" width="236" height="236" viewBox="0 0 1024 1024">
      <rect width="1024" height="1024" rx="226" fill="#FAF6EF"/>
      <circle cx="512" cy="512" r="196" fill="#2F3B38"/>
      <circle cx="448" cy="442" r="54" fill="#FAF6EF"/>
      <circle cx="632" cy="602" r="38" fill="#D9715E"/>
    </svg>
          <svg x="312" y="90" width="76" height="76" viewBox="0 0 1024 1024">
      <rect width="1024" height="1024" rx="226" fill="#FAF6EF"/>
      <circle cx="512" cy="512" r="196" fill="#2F3B38"/>
      <circle cx="448" cy="442" r="54" fill="#FAF6EF"/>
      <circle cx="632" cy="602" r="38" fill="#D9715E"/>
    </svg>
          <svg x="338" y="206" width="28" height="28" viewBox="0 0 1024 1024">
      <rect width="1024" height="1024" rx="226" fill="#FAF6EF"/>
      <circle cx="512" cy="512" r="196" fill="#2F3B38"/>
      <circle cx="448" cy="442" r="54" fill="#FAF6EF"/>
      <circle cx="632" cy="602" r="38" fill="#D9715E"/>
    </svg>
          <text x="56" y="340" font-family="Avenir Next, Helvetica Neue, Arial, sans-serif" font-size="28" font-weight="750" fill="#252B2A">06 Breath Dot</text>
          <text x="56" y="381" font-family="Avenir Next, Helvetica Neue, Arial, sans-serif" font-size="17" fill="#68716E">Ultra-minimal, built for tiny launcher size.</text>
          <text x="56" y="438" font-family="Avenir Next, Helvetica Neue, Arial, sans-serif" font-size="14" letter-spacing="2" fill="#B98370">FLAT / 108 / 28 PX CHECK</text>
        </g>
      
</svg>
