<svg xmlns="http://www.w3.org/2000/svg" width="1024" height="1024" viewBox="0 0 1024 1024">
  <defs>
    <linearGradient id="bg" x1="160" y1="80" x2="864" y2="944" gradientUnits="userSpaceOnUse">
      <stop offset="0" stop-color="#13264A"/>
      <stop offset="0.55" stop-color="#07162E"/>
      <stop offset="1" stop-color="#020817"/>
    </linearGradient>
    <linearGradient id="paper" x1="260" y1="270" x2="760" y2="760" gradientUnits="userSpaceOnUse">
      <stop offset="0" stop-color="#FFF2CE"/>
      <stop offset="1" stop-color="#D8B56A"/>
    </linearGradient>
    <filter id="shadow" x="-20%" y="-20%" width="140%" height="140%">
      <feDropShadow dx="0" dy="28" stdDeviation="32" flood-color="#000814" flood-opacity="0.38"/>
    </filter>
  </defs>
  <rect x="0" y="0" width="1024" height="1024" rx="224" fill="url(#bg)"/>
  <circle cx="760" cy="218" r="10" fill="#E9C877" opacity="0.9"/>
  <circle cx="242" cy="782" r="7" fill="#E9C877" opacity="0.65"/>
  <path d="M246 612C324 474 435 388 557 354C638 331 720 331 786 355" fill="none" stroke="#355B9A" stroke-width="20" stroke-linecap="round" opacity="0.38"/>
  <g filter="url(#shadow)">
    <path d="M324 642H714C776 642 826 592 826 530C826 470 779 421 720 418C694 333 615 272 522 272C418 272 332 348 316 447C250 456 198 513 198 582C198 659 260 722 337 722H706" fill="none" stroke="url(#paper)" stroke-width="72" stroke-linecap="round" stroke-linejoin="round"/>
    <path d="M354 632L474 512L558 596L682 472" fill="none" stroke="#F8E6B6" stroke-width="50" stroke-linecap="round" stroke-linejoin="round"/>
    <circle cx="354" cy="632" r="28" fill="#F8E6B6"/>
    <circle cx="682" cy="472" r="28" fill="#F8E6B6"/>
  </g>
  <path d="M376 812H648" stroke="#C7A65E" stroke-width="22" stroke-linecap="round" opacity="0.7"/>
</svg>
